<svg  viewBox="0 0 647 138" fill="none" xmlns="http://www.w3.org/2000/svg">
	<path d="M647 92.2718C647 98.8367 644.662 104.457 639.985 109.134C635.399 113.72 629.823 116.013 623.258 116.013H605.992C599.427 116.013 593.806 113.72 589.13 109.134C584.543 104.457 582.25 98.8816 582.25 92.4067H595.74C595.74 95.1945 596.729 97.5777 598.707 99.5561C600.776 101.535 603.204 102.524 605.992 102.524H623.393C626.181 102.524 628.564 101.535 630.543 99.5561C632.521 97.5777 633.51 95.1495 633.51 92.2718C633.51 89.394 632.251 86.786 629.733 84.4478C627.215 82.0197 624.023 80.0412 620.156 78.5124C616.379 76.8937 612.287 75.0501 607.88 72.9817C603.474 70.9133 599.337 68.7999 595.47 66.6416C591.693 64.4832 588.545 61.5605 586.027 57.8734C583.509 54.0963 582.25 49.8696 582.25 45.1932C582.25 38.6282 584.543 33.0526 589.13 28.4661C593.716 23.8797 599.292 21.5864 605.857 21.5864H623.258C629.823 21.5864 635.399 23.8797 639.985 28.4661C644.572 33.0526 646.865 38.5833 646.865 45.0583H633.51C633.51 42.2704 632.521 39.9322 630.543 38.0437C628.564 36.0652 626.181 35.076 623.393 35.076H605.857C603.069 35.076 600.686 36.0652 598.707 38.0437C596.729 40.0222 595.74 42.4053 595.74 45.1932C595.74 48.0709 596.999 50.7239 599.517 53.152C602.035 55.4902 605.182 57.4687 608.959 59.0874C612.826 60.6162 616.963 62.4148 621.37 64.4832C625.776 66.5516 629.868 68.665 633.645 70.8233C637.512 72.9817 640.705 75.9494 643.223 79.7265C645.741 83.4136 647 87.5954 647 92.2718Z" fill="white"/>
	<path d="M568.75 102.524V116.013H504V102.524H529.63V35.076H504V21.5864H568.75V35.076H543.12V102.524H568.75Z" fill="white"/>
	<path d="M451.38 21.5864H464.87C466.848 21.5864 468.242 21.9461 469.052 22.6656C469.951 23.2951 470.85 24.5541 471.749 26.4427L489.691 64.2135C490.23 65.3826 490.5 68.1254 490.5 72.4421V116.013H477.01V95.779H439.24V116.013H425.75V72.4421C425.75 68.1254 426.02 65.3826 426.559 64.2135L444.366 26.4427C445.175 24.6441 446.029 23.385 446.929 22.6656C447.918 21.9461 449.402 21.5864 451.38 21.5864ZM477.01 82.2895V68.665L461.497 35.076H455.157L439.24 68.665V82.2895H477.01Z" fill="white"/>
	<path d="M412.25 102.524V116.013H347.5V21.5864H360.99V102.524H412.25Z" fill="white"/>
	<path d="M334 41.8208V95.779C334 101.355 332.021 106.121 328.065 110.078C324.108 114.035 319.341 116.013 313.766 116.013H289.484C283.909 116.013 279.142 114.035 275.185 110.078C271.228 106.121 269.25 101.355 269.25 95.779V41.8208C269.25 36.2451 271.228 31.4788 275.185 27.5218C279.142 23.5649 283.909 21.5864 289.484 21.5864H313.766C319.341 21.5864 324.108 23.5649 328.065 27.5218C332.021 31.4788 334 36.2451 334 41.8208ZM320.51 95.779V41.8208C320.51 39.9322 319.836 38.3585 318.487 37.0994C317.138 35.7505 315.564 35.076 313.766 35.076H289.484C287.686 35.076 286.112 35.7505 284.763 37.0994C283.414 38.3585 282.74 39.9322 282.74 41.8208V95.779C282.74 97.5777 283.414 99.1514 284.763 100.5C286.112 101.849 287.686 102.524 289.484 102.524H313.766C315.564 102.524 317.138 101.849 318.487 100.5C319.836 99.1514 320.51 97.5777 320.51 95.779Z" fill="white"/>
	<path d="M255.75 92.2718C255.75 98.8367 253.412 104.457 248.735 109.134C244.149 113.72 238.573 116.013 232.008 116.013H214.742C208.177 116.013 202.556 113.72 197.88 109.134C193.293 104.457 191 98.8816 191 92.4067H204.49C204.49 95.1945 205.479 97.5777 207.457 99.5561C209.526 101.535 211.954 102.524 214.742 102.524H232.143C234.931 102.524 237.314 101.535 239.293 99.5561C241.271 97.5777 242.26 95.1495 242.26 92.2718C242.26 89.394 241.001 86.786 238.483 84.4478C235.965 82.0197 232.773 80.0412 228.906 78.5124C225.129 76.8937 221.037 75.0501 216.63 72.9817C212.224 70.9133 208.087 68.7999 204.22 66.6416C200.443 64.4832 197.295 61.5605 194.777 57.8734C192.259 54.0963 191 49.8696 191 45.1932C191 38.6282 193.293 33.0526 197.88 28.4661C202.466 23.8797 208.042 21.5864 214.607 21.5864H232.008C238.573 21.5864 244.149 23.8797 248.735 28.4661C253.322 33.0526 255.615 38.5833 255.615 45.0583H242.26C242.26 42.2704 241.271 39.9322 239.293 38.0437C237.314 36.0652 234.931 35.076 232.143 35.076H214.607C211.819 35.076 209.436 36.0652 207.457 38.0437C205.479 40.0222 204.49 42.4053 204.49 45.1932C204.49 48.0709 205.749 50.7239 208.267 53.152C210.785 55.4902 213.932 57.4687 217.709 59.0874C221.576 60.6162 225.713 62.4148 230.12 64.4832C234.526 66.5516 238.618 68.665 242.395 70.8233C246.262 72.9817 249.455 75.9494 251.973 79.7265C254.491 83.4136 255.75 87.5954 255.75 92.2718Z" fill="white"/>
	<path fill-rule="evenodd" clip-rule="evenodd" d="M139.151 0.723591C138.773 0.391609 138.235 0.353716 137.738 0.318734C137.635 0.311472 137.534 0.304335 137.436 0.294718C134.098 -0.0502453 124.458 -0.143478 121.241 0.294719C120.206 0.434569 119.6 0.882089 118.808 1.48811L93.6909 45.3451C93.0849 46.0443 92.4975 46.641 91.5279 46.8088C90.0607 47.0675 87.777 46.9625 85.3566 46.8512C81.4095 46.6697 77.0986 46.4714 75.3706 47.8064L62.9333 69.0263C62.883 69.1682 62.8403 69.3047 62.8049 69.436C61.5443 71.4004 60.4159 73.7175 59.2882 76.0332C57.8778 78.9293 56.4686 81.8231 54.8031 84.0222C52.7895 86.6735 48.5796 86.4491 44.4377 86.2283C41.2537 86.0585 38.1099 85.8909 36.0352 87.0336L8.74583 134.657C8.19575 135.31 8.52208 136.783 9.07215 137.277C9.45046 137.609 9.9886 137.647 10.4854 137.682C10.5885 137.689 10.6899 137.696 10.7876 137.706C14.1254 138.051 23.7657 138.144 26.9823 137.706C28.0172 137.566 28.6232 137.119 29.4157 136.513L54.5327 92.6556C55.1387 91.9563 55.7261 91.3596 56.6957 91.1918C58.1629 90.9331 60.4465 91.0381 62.8669 91.1494H62.8671C66.8141 91.331 71.1251 91.5292 72.8531 90.1942L85.2904 68.9743C85.3406 68.8325 85.3834 68.696 85.4187 68.5647C86.6794 66.6003 87.8078 64.2831 88.9355 61.9674C90.3458 59.0714 91.755 56.1775 93.4205 53.9785C95.4341 51.3271 99.6441 51.5515 103.786 51.7724C106.97 51.9421 110.114 52.1097 112.188 50.967L139.478 3.34345C140.028 2.69081 139.702 1.21773 139.151 0.723591ZM31.3831 69.8468C31.1407 71.3851 32.0824 72.0564 33.4622 72.2429C36.6042 72.6531 46.4589 72.6251 49.6382 72.2429C51.8873 71.9676 52.6572 70.6709 53.5985 69.0855C53.7731 68.7914 53.9537 68.4873 54.1507 68.1779C56.6215 64.2889 58.853 60.0234 61.0841 55.7586C63.576 50.9955 66.0673 46.2333 68.8909 41.998C69.0161 41.8095 69.1353 41.6224 69.2522 41.4387L69.2526 41.4381C70.0323 40.2138 70.7116 39.147 72.4058 38.912C73.7659 38.7212 75.7543 38.8126 77.8963 38.911C82.1412 39.106 86.9898 39.3288 88.7496 37.4389C91.3479 32.2863 94.4952 27.1755 97.6424 22.0649C101.147 16.3746 104.65 10.6846 107.396 4.93774C107.466 4.79162 107.539 4.64305 107.613 4.49309L107.613 4.49299L107.613 4.49284L107.613 4.49275C108.493 2.70038 109.471 0.708382 106.408 0.304043C103.145 -0.124831 93.924 -0.0502435 90.549 0.304043C88.1602 0.548154 87.5567 1.45261 86.4212 3.15463C86.3424 3.27276 86.261 3.39473 86.1763 3.52059C83.2389 7.85067 80.695 12.7034 78.1397 17.5777L78.1397 17.5778L78.1396 17.5778L78.1396 17.5779C75.3746 22.8524 72.5963 28.1521 69.2918 32.8425C68.5646 33.4671 67.7721 33.8587 66.8118 33.9892C65.4413 34.171 63.2487 34.0778 60.932 33.9793H60.9319C57.307 33.8252 53.3784 33.6581 51.8198 34.5114C51.5115 34.6763 51.2583 34.9625 51.0179 35.2344L51.0178 35.2344L51.0178 35.2345C50.9456 35.3161 50.8746 35.3963 50.8036 35.4717L31.3924 69.8747L31.3831 69.8468ZM2.11716 72.2429C0.737311 72.0564 -0.204345 71.3851 0.0380613 69.8468L27.3368 21.9062C28.0733 21.2815 28.8565 20.89 29.8261 20.7594C31.2212 20.5742 33.5131 20.6772 35.9104 20.7849C39.4251 20.9428 43.1665 21.1108 44.6409 20.3958C45.1563 20.1473 45.7353 19.3901 46.0998 18.9133L46.114 18.8948C47.7065 16.7831 49.1683 13.7709 50.6285 10.7623L50.6285 10.7622C52.2885 7.34174 53.9464 3.92571 55.7916 1.84239C56.2577 1.32029 56.8638 0.844798 57.535 0.621038C59.4743 -0.0129486 72.182 0.0150208 74.7273 0.294721C76.6199 0.509157 77.4497 1.19908 76.9462 3.18495L64.6674 24.582C63.0602 26.1137 59.1576 25.9 55.3317 25.6906C52.0779 25.5125 48.8795 25.3374 47.1955 26.2416C46.8797 26.4143 46.5945 26.7355 46.3177 27.0471C46.1614 27.2232 46.0077 27.3961 45.8529 27.5375L21.0715 71.0681C20.2231 71.7487 19.384 72.103 18.2931 72.2429C15.1698 72.6251 5.21251 72.6438 2.11716 72.2429ZM116.841 68.1538C117.083 66.6155 116.141 65.9442 114.761 65.7577C111.619 65.3475 101.765 65.3755 98.5855 65.7577C96.3363 66.033 95.5664 67.3298 94.6252 68.9151C94.4505 69.2093 94.27 69.5134 94.073 69.8227C91.6022 73.7116 89.3707 77.9771 87.1397 82.2417L87.1395 82.2419C84.6477 87.0051 82.1563 91.7673 79.3328 96.0026C79.2074 96.1913 79.0881 96.3787 78.971 96.5625C78.1914 97.7869 77.5121 98.8536 75.8179 99.0887C74.4577 99.2794 72.4694 99.188 70.3273 99.0896C66.0824 98.8946 61.2339 98.6718 59.4741 100.562C56.8757 105.714 53.7284 110.825 50.5813 115.936L50.5812 115.936C47.0771 121.626 43.5732 127.316 40.8274 133.063C40.7575 133.209 40.6846 133.358 40.6109 133.508C39.731 135.3 38.753 137.292 41.8157 137.697C45.0789 138.125 54.2996 138.051 57.6747 137.697C60.0635 137.452 60.6669 136.548 61.8024 134.846L61.9529 134.621L62.0473 134.48C64.9848 130.15 67.5287 125.297 70.084 120.423C72.849 115.148 75.6273 109.849 78.9319 105.158C79.6591 104.533 80.4516 104.142 81.4119 104.011C82.7823 103.83 84.9748 103.923 87.2914 104.021H87.2915H87.2917H87.2918C90.9166 104.175 94.8453 104.342 96.4038 103.489C96.7121 103.324 96.9653 103.038 97.2058 102.766L97.206 102.766C97.2781 102.684 97.3491 102.604 97.42 102.529L116.831 68.1259L116.841 68.1538ZM146.106 65.7577C147.486 65.9442 148.428 66.6155 148.186 68.1538L120.887 116.094C120.15 116.719 119.367 117.111 118.398 117.241C117.003 117.426 114.711 117.323 112.313 117.216H112.313C108.799 117.058 105.057 116.89 103.583 117.605C103.067 117.853 102.488 118.611 102.124 119.087L102.11 119.106C100.517 121.218 99.0553 124.23 97.5952 127.238L97.5952 127.238L97.5951 127.239C95.9351 130.659 94.2773 134.075 92.4321 136.158C91.9659 136.68 91.3599 137.156 90.6886 137.38C88.7493 138.014 76.0416 137.986 73.4964 137.706C71.6037 137.491 70.774 136.802 71.2774 134.816L83.5562 113.419C85.1635 111.887 89.066 112.101 92.8919 112.31C96.1458 112.488 99.3442 112.663 101.028 111.759C101.344 111.586 101.629 111.265 101.906 110.954C102.062 110.777 102.216 110.605 102.371 110.463L127.152 66.9325C128.001 66.2519 128.84 65.8976 129.93 65.7577C133.054 65.3755 143.011 65.3568 146.106 65.7577Z" fill="white"/>
</svg>

