<svg xmlns="http://www.w3.org/2000/svg" viewBox="0 0 512 512" fill="none">
  <path d="M0 0L245 366L512 460L248 96L0 0Z" fill="currentColor"/>
  <path d="M318 110L470 338L356 286L318 110Z" fill="currentColor"/>
  <path d="M92 386C150 341 214 316 295 316C386 316 459 342 512 381L512 428C441 396 370 379 300 379C227 379 161 397 106 432L92 386Z" fill="currentColor"/>
  <path fill-rule="evenodd" clip-rule="evenodd" d="M250 404C313 404 373 417 420 440C449 454 470 470 482 488C491 501 492 514 485 524C478 534 463 539 446 541C405 544 353 536 301 517C249 498 202 470 172 438L162 428L174 420C196 409 222 404 250 404ZM250 442C233 442 217 444 203 449C229 472 264 491 302 506C348 524 393 531 433 529C444 528 450 526 452 524C453 522 452 518 447 511C438 499 422 486 398 474C357 455 305 442 250 442Z" fill="currentColor"/>
  <path d="M346 457L360 417L374 457L414 471L374 485L360 525L346 485L306 471L346 457Z" fill="currentColor"/>
</svg>
